<?xml version="1.0" encoding="UTF-8"?>
<svg version="1.1" viewBox="0 0 800 800" width="1280" height="1280" xmlns="http://www.w3.org/2000/svg">
<path transform="translate(398,76)" d="m0 0h3l13 20 10 18 16 29 9 15 16 28 14 25 42 71 13 22 14 25 13 23 14 24 28 49 13 22 12 21 15 25 14 24 15 26 14 24 16 29 26 46 8 13 9 15 10 19 3 7v3l-5 2-6 1h-382l-11-2-8-7-8-13-14-26-8-14-4-8v-2l11-1 5-1 14-1 284-1 2-1v-7l-12-22-16-27-14-25-14-24-9-15-15-26-9-16-9-15-11-19-9-15-14-24-16-28-13-22-30-52-25-45-9-14-3-2-7 9-12 20-13 22-11 20-12 21-15 26-13 22-12 21-9 15-6 11-14 24-11 19-9 16-13 22-5 8-3-1-9-15-12-22-10-17-8-14-1-6 9-17 12-21 26-46 14-24 17-29 10-17 16-27 14-24 16-28 14-24 28-49 14-25 5-9z" fill="#3355FA"/>
<path transform="translate(154,499)" d="m0 0h2l20 35 15 26 10 17 16 28 15 26 16 28 16 29 6 11v2l-15 1-207-1-8-1 2-6 12-22 8-13 15-27 26-46 10-17 9-15 15-26 13-23z" fill="#545454"/>
<path transform="translate(399,385)" d="m0 0 4 4 8 14 10 17 14 24 10 18 14 24 15 26 14 24 5 10-14 1h-137l-24-1-9-1 1-4 8-16 7-12 6-9 13-24 10-17 14-24 6-11 8-14 14-24z" fill="#3355FA"/>
<path transform="translate(758,699)" d="m0 0" fill="#3355FA"/>
</svg>
